<?xml version="1.0" encoding="utf-8"?>
<!-- Generator: Adobe Illustrator 19.0.0, SVG Export Plug-In . SVG Version: 6.00 Build 0)  -->
<svg version="1.1" id="Layer_1" xmlns="http://www.w3.org/2000/svg" xmlns:xlink="http://www.w3.org/1999/xlink" x="0px" y="0px"
	 width="1400px" height="1400px" viewBox="0 0 1400 1400" enable-background="new 0 0 1400 1400" xml:space="preserve">
<g id="XMLID_65_">
	<path id="XMLID_716_" fill="#CEEFFF" d="M1229,1104.9c-1,1.2-2,2.4-3.1,3.6c-122.7,135.6-827.9,138-1000.3,22.3
		c-10.8-7.2-22.4-13.9-33.1-22.3c-85.5-67.3-146.3-195.9-53.8-334.2c7.3-11,15.7-22,25-33.1c7.9-9.3,16.5-18.7,25.8-28
		c61.5-61.4,399-147.5,483-350.4c37.7-91.2,108.9-146.5,188.5-167.4c75.5-19.8,158.6-8.6,228.1,32.5c20.3,12,39.5,26.6,57,43.7
		c56.7,55.6,106.3,171,135.1,301.6c10,45.4,17.5,92.6,21.9,139.8c0.9,9.4,1.6,18.8,2.3,28.2c0.7,11.1,1.3,22.1,1.6,33.1
		C1311.4,905,1289.6,1028.8,1229,1104.9z"/>
	<path id="XMLID_717_" fill="#F1FAFF" d="M1089.6,227.8v304.9H861.5V195.3C937,175.5,1020.1,186.7,1089.6,227.8z"/>
	<rect id="XMLID_718_" x="606.9" y="573.2" fill="#AFDCF7" width="275.1" height="139.8"/>
	<rect id="XMLID_719_" x="730.9" y="698.1" fill="#AFDCF7" width="27.2" height="51.5"/>
	<path id="XMLID_720_" fill="#AFDCF7" d="M1304.6,713h-205.6V573.2h183.7C1292.7,618.6,1300.2,665.8,1304.6,713z"/>
	<rect id="XMLID_721_" x="1222.9" y="698.1" fill="#AFDCF7" width="27.2" height="51.5"/>
	<path id="XMLID_722_" fill="#C1E4F9" d="M1307.6,774.3H139.4c7.3-11,15.7-22,25-33.1H1306C1306.7,752.3,1307.3,763.3,1307.6,774.3z
		"/>
	<path id="XMLID_723_" fill="#AFDCF7" d="M1229,1104.9c-1,1.2-2,2.4-3.4,2.7H192.2c-85.2-66.3-146-194.9-53.4-333.2H1307
		C1311.4,905,1289.6,1028.8,1229,1104.9z"/>
	<path id="XMLID_724_" fill="#EDF1F8" d="M902.5,371c11.6,6,11,13.2,8.1,17.6l-10.5-1.8L902.5,371z"/>
	<path id="XMLID_725_" fill="#364867" d="M832.3,1082.2c0,0,3.5,13-5,18s-33,7-39,20s47.5,8.5,63,7.5s19-5.5,19.5-14.5s0-31,0-31
		H832.3z"/>
	<path id="XMLID_726_" fill="#364867" d="M901.3,1101.2c0,0,3.5,13-5,18s-33,7-39,20s47.5,8.5,63,7.5s19-5.5,19.5-14.5s0-31,0-31
		H901.3z"/>
	<path id="XMLID_398_" fill="#54729F" d="M954.4,765.8c-0.2,0.8-0.3,1.6-0.5,2.4c-1.9,8.6-4.8,16.3-9.1,21.9
		c-1.9,11.6,1.3,225.2-0.2,310.9c0,0.7,0,1.4,0,2.1c0,2.7-0.1,5.3-0.2,7.7c-24,5.6-48,0-48,0l-1.1-11.6l-0.2-2l-36.2-390.4h96.9
		C955.8,706.7,959.6,739.3,954.4,765.8z"/>
	<path id="XMLID_415_" fill="#54729F" d="M891.4,786.9c-1.7,6.9-4.7,90.2-8.3,171.3c-0.2,4.9-0.4,9.7-0.7,14.6
		c-1.9,41.9-4,81.9-6.2,109c-0.1,0.7-0.1,1.4-0.2,2c-0.3,3.1-0.5,5.9-0.8,8.6c-24.3,5.3-48,0-48,0l-0.5-11.3l-0.1-2.1l-13.2-308.2
		l-0.1-3.2l-2.6-60h96.9C907.7,707.6,910.9,764.8,891.4,786.9z"/>
	<path id="XMLID_358_" fill="#3F5580" d="M883.1,958.1c-0.2,4.9-0.4,9.7-0.7,14.6L864,772.3c-0.1-0.6,0.3-1,0.9-1.1s1,0.3,1.1,0.9
		L883.1,958.1z"/>
	<path id="XMLID_730_" fill="#3F5580" d="M909.2,751.6c0,0-0.2,1.6-0.2,4c0,4.3,0.5,11.3,3,17.9c1.3,3.3,3.1,6.4,5.7,9.1
		c2.6,2.6,5.9,4.7,10.2,5.7c0.5,0.1,1.1-0.2,1.2-0.7c0.1-0.5-0.2-1.1-0.7-1.2c-3.9-0.9-6.9-2.8-9.2-5.1c-3.5-3.5-5.6-8.4-6.7-13.1
		c-1.2-4.7-1.4-9.3-1.4-12.4c0-1.2,0-2.1,0.1-2.8c0-0.3,0-0.6,0-0.8l0-0.2l0-0.1c0.1-0.5-0.3-1-0.9-1.1
		C909.8,750.7,909.3,751.1,909.2,751.6L909.2,751.6z"/>
	<path id="XMLID_731_" fill="#3F5580" d="M927.3,738.1l0.6-0.2l-0.6,0.1L927.3,738.1l0.6-0.2l-0.6,0.1c0,0,0,0.3,0.1,0.6
		c0.1,1.4,0.2,4.6,0.3,9.3c0.6,32.9,0.7,139.7,0.7,227.7c0,34.9,0,66.8,0,90c0,11.6,0,21,0,27.5c0,3.3,0,5.8,0,7.5
		c0,1.7,0,2.6,0,2.6c0,0.6,0.4,1,1,1c0.6,0,1-0.4,1-1c0,0,0.1-57.9,0.1-127.6c0-52.3,0-111.2-0.2-157.4c-0.1-23.1-0.2-42.9-0.3-57.2
		c-0.1-7.1-0.2-12.8-0.2-16.8c0-2-0.1-3.6-0.1-4.7c0-0.6-0.1-1-0.1-1.3c0-0.2,0-0.3,0-0.4l0-0.2c0-0.1,0-0.1-0.1-0.3
		c-0.2-0.5-0.8-0.7-1.3-0.5C927.3,737,927.1,737.6,927.3,738.1L927.3,738.1z"/>
	<path id="XMLID_360_" fill="#3F5580" d="M944.6,1101c0,0.7,0,1.4,0,2.1c-3,0.5-6.6,0.7-10.6,0.7c-12.5,0-28.6-2.2-38.7-4.6l-0.2-2
		c0.1,0,0.2,0,0.3,0c9.8,2.5,26.1,4.7,38.5,4.7C938.1,1101.8,941.8,1101.5,944.6,1101z"/>
	<path id="XMLID_388_" fill="#3F5580" d="M876.2,1081.7c-0.1,0.7-0.1,1.4-0.2,2c-6.4,0.7-12.7,1.1-18.8,1.1
		c-10.7,0-20.9-1.2-30.5-3.8l-0.1-2.1c9.6,2.6,19.8,3.9,30.6,3.9C863.4,1082.9,869.7,1082.5,876.2,1081.7z"/>
	<path id="XMLID_340_" fill="#3F5580" d="M820.2,747.4c0,6.2-0.7,11.1-2.1,15.2c-1.1,3.1-2.6,5.8-4.6,8.2l-0.1-3.2
		c1.2-1.7,2.1-3.6,2.8-5.7c1.3-3.8,2-8.5,2-14.6c0-2.9-0.2-6.1-0.4-9.6c-0.1-0.5,0.4-1,0.9-1.1c0.5-0.1,1,0.4,1.1,0.9
		C820,741.2,820.2,744.5,820.2,747.4z"/>
	<path id="XMLID_735_" fill="#2D3968" d="M810.2,247.1c0,0-9.2-3-11.1,8.7c-1.9,11.7,3.2,32.7,3.2,32.7s18.3-35.7,17.9-36.7
		C819.8,250.7,810.2,247.1,810.2,247.1z"/>
	<path id="XMLID_736_" fill="#FDB382" d="M735.9,452.8c0,0-13.1-24.4-30.5-47.3c-17.4-22.9-18-15.9-13.1-3.4
		c4.9,12.5,11.5,18.6,11.5,18.6s-7.9,0.1-11.9,10.9c-9.4,25,10.9,31.1,22.6,31.5C724.7,463.3,735.9,452.8,735.9,452.8z"/>
	<path id="XMLID_737_" fill="#FFFFFF" d="M869.9,395.7c-11.8-1.8-38.9,16-49.4,54s-19.2,54-19.2,54s-44.3-35.6-61.8-56.6
		c-28.5,10-31,31.8-31,31.8s42,52.1,75.5,70.2c33.5,18.1,36.4,15.6,40,13.6s41-62.7,51-98.2C881.3,442.2,888.7,398.6,869.9,395.7z"
		/>
	<path id="XMLID_738_" fill="#FDB382" d="M863.5,419.7c12,7,28,3,38-8c5.3-5.3,11-10,16.9-14.6c-8.7-5-18.6-7.8-29.7-8.4
		c-7.1-0.3-22.1,0.8-36.9,13.3C853.8,409.3,857.3,416,863.5,419.7z"/>
	<path id="XMLID_739_" fill="#54729F" d="M958.5,490.7c0-45.6-14.4-78.9-40.1-93.6c-5.9,4.6-11.7,9.4-16.9,14.6c-10,11-26,15-38,8
		c-6.2-3.7-9.7-10.5-11.7-17.7c-16.4,13.8-32.6,41.5-37.8,96.5c-10.8,112.9-9,204.5-9,204.5c25.7,43.7,86.8,41.4,157.5,26.7
		C962.5,729.7,958.5,551.7,958.5,490.7z"/>
	<path id="XMLID_384_" fill="#FFFFFF" d="M834.6,731.2c0.8,13.3,1.3,20.6,1.3,20.6c-36.5-12.7-36.9-22-36.9-22s0.9-138.9,8.9-216
		c8.2-78.6,30.8-106.8,56.2-121.6c0.2,2.1,0.3,4,0.4,5.6c0.3,3.5,0.4,5.5,0.4,5.5c-16.1,21.2-27.6,63.1-33.2,112.2
		c-0.3,3-0.6,6-0.9,9c-2.8,28.1-3.6,58.3-2.3,87.9c2.3,52.2,4.6,92.7,6,116.3C834.5,729.5,834.6,730.4,834.6,731.2z"/>
	<path id="XMLID_338_" fill="#FDB382" d="M903,377.7c0.7,8.4,1.6,13.5,1.6,13.5c-14.2,9.3-27.4,12.8-39.6,12.1c0,0-0.1-2-0.4-5.5
		c-0.1-0.8-0.1-1.7-0.2-2.7c-0.4-5.9-1.1-14.5-1.8-24.3c-41.4,7.3-57.8-50.1-60.9-86.1c-5.9-68,77.6-72.5,97.1-42.2
		c27.8,42.9,2.9,97,3.3,116.2c0.1,6.1,0.4,11.6,0.8,16.3C902.9,376,903,376.9,903,377.7z"/>
	<path id="XMLID_386_" fill="#FFFFFF" d="M968.2,729.7c0,0-6.9,7.6-19.6,14.7c-0.7,0.4-1.3,0.7-2,1.1c-14.6,7.7-36.1,14.3-62.9,8.8
		c0,0-0.8-5.1-2.1-14.1c-0.1-0.6-0.2-1.3-0.3-2c-4.2-29.2-12.8-94-16.3-159.8c0-0.7-0.1-1.4-0.1-2c-0.8-14.2-1.3-28.5-1.4-42.5
		c0-0.7,0-1.4,0-2.1c0-2.9,0-5.8,0-8.6c0-2.5,0-4.9,0-7.4c0-2.1,0-4.1,0.1-6.1c2-106,35.5-125.2,40.4-123.6c2,0.6,3.9,1.3,5.7,2.1
		c0.6,0.3,1.3,0.6,1.9,0.9c0.1,0.1,0.2,0.1,0.4,0.2c29.2,14.1,44.4,50.2,46.3,92.5C960.2,527.7,968.2,729.7,968.2,729.7z"/>
	<path id="XMLID_747_" fill="#364867" d="M803.5,238.1c0,0-4.3,14.7,3,25c7.3,10.3,47-1.7,47-1.7s2.3,16,6,23s13.3,7.7,13.3,7.7
		s-2.3,13,0,17.7c2.3,4.7,3.3-7.3,5-13.7c1.7-6.3,12.3-8.7,14.3,5.3s-9.2,25-9.2,25s5.5,24,19.7,25.2s18.2-60.5,17.8-85.8
		c-0.3-25.3-18.5-45.6-28.7-41.1C885.2,204.4,812.8,204.4,803.5,238.1z"/>
	<path id="XMLID_748_" fill="#CA8E68" d="M826.8,302.6c0,0,0,0.5,0.1,1.2c0.2,2.3,0.5,7.4,0.5,11c0,0.5,0,0.9,0,1.3
		c-0.1,2.4-1,5-2,7.5c-0.5,1.3-1,2.5-1.4,3.7c-0.4,1.2-0.6,2.3-0.6,3.5c0,1.1,0.3,2.3,1.1,3.2c0.8,0.9,1.7,1.5,2.8,1.8
		c1,0.3,2.1,0.4,3.2,0.4c3.1,0,6-1,6.1-1c0.5-0.2,0.8-0.7,0.6-1.3c-0.2-0.5-0.7-0.8-1.3-0.6l0,0c-0.3,0.1-2.9,0.9-5.4,0.9
		c-0.9,0-1.8-0.1-2.6-0.3c-0.8-0.2-1.4-0.6-1.9-1.2c-0.4-0.5-0.6-1.1-0.6-1.9c0-0.8,0.2-1.8,0.6-2.9c0.5-1.6,1.3-3.5,2-5.5
		c0.7-2,1.3-4.1,1.4-6.2c0-0.4,0-0.9,0-1.3c0-4.9-0.6-12.4-0.6-12.4c0-0.6-0.5-1-1.1-0.9C827.1,301.6,826.7,302.1,826.8,302.6
		L826.8,302.6z"/>
	<path id="XMLID_749_" fill="#CA8E68" d="M831.7,349c3.4,1.2,6.4,1.7,9.1,1.7c2.7,0,5.1-0.6,7.2-1.7c2-1.1,3.7-2.7,5.1-4.8
		c0.3-0.5,0.2-1.1-0.3-1.4c-0.5-0.3-1.1-0.2-1.4,0.3c-1.2,1.8-2.7,3.2-4.4,4.1c-1.7,0.9-3.8,1.5-6.2,1.5c-2.4,0-5.2-0.5-8.4-1.6
		c-0.5-0.2-1.1,0.1-1.3,0.6C830.9,348.2,831.2,348.8,831.7,349L831.7,349z"/>
	<path id="XMLID_750_" fill="#CA8E68" d="M845.4,355.4c0,0,0.8-0.1,1.8-0.3c0.5-0.1,1-0.3,1.5-0.5c0.5-0.2,0.9-0.5,1.3-1
		c0.3-0.5,0.2-1.1-0.3-1.4c-0.5-0.3-1.1-0.2-1.4,0.3l0,0l0,0l0,0l0,0l0,0c0,0-0.2,0.2-0.5,0.3c-0.5,0.2-1.1,0.4-1.7,0.4
		c-0.3,0-0.5,0.1-0.7,0.1l-0.2,0l-0.1,0c-0.5,0.1-0.9,0.5-0.9,1.1C844.4,355,844.9,355.4,845.4,355.4L845.4,355.4z"/>
	<path id="XMLID_751_" fill="#364867" d="M838,281.9c6.3-0.3,12.1,2.1,12.2,4.4c0.1,2.3-3.1,1-6.7,0s-6.7-0.3-8.6-0.3
		C833,285.9,832.2,282.1,838,281.9z"/>
	<path id="XMLID_752_" fill="#364867" d="M812.6,284c-6.2,1-11.4,4.5-11.1,6.8c0.3,2.3,3.2,0.4,6.5-1.3c3.3-1.7,6.5-1.6,8.3-2.1
		S818.3,283.1,812.6,284z"/>
	<path id="XMLID_753_" fill="#CA8E68" d="M882.6,316.6c0.3-0.3,0.5-0.7,0.6-1c0.1-0.4,0.2-0.8,0.2-1.1c0-1-0.3-2-0.7-3
		c-0.4-1-0.8-2-1.1-3c-0.1-0.4-0.2-1.2-0.2-2.1c0-1.6,0.2-3.6,0.7-5.1c0.2-0.8,0.5-1.4,0.8-1.7c0.1-0.2,0.3-0.3,0.4-0.4
		c0.1-0.1,0.2-0.1,0.3-0.1c0.1,0,0.3,0,0.5,0.2c0.2,0.1,0.6,0.4,0.9,0.8c0.4,0.4,1,0.4,1.4,0.1c0.4-0.4,0.4-1,0.1-1.4
		c-0.5-0.5-0.9-0.9-1.4-1.2c-0.5-0.3-1-0.4-1.5-0.4c-0.5,0-0.9,0.1-1.3,0.4c-0.7,0.4-1.1,1-1.5,1.7c-0.5,1-0.9,2.2-1.1,3.5
		c-0.2,1.3-0.3,2.6-0.3,3.8c0,1,0.1,1.9,0.3,2.6c0.3,1.2,0.8,2.3,1.1,3.2c0.4,0.9,0.6,1.7,0.6,2.3c0,0.2,0,0.3-0.1,0.4
		c0,0.1-0.1,0.2-0.2,0.3c-0.4,0.4-0.4,1,0,1.4C881.6,317,882.2,317,882.6,316.6L882.6,316.6z"/>
	<path id="XMLID_754_" fill="#CA8E68" d="M862.8,372.8c5.1-1.5,10.6-4.2,14.8-6.6c4.2-2.3,7.1-4.3,7.1-4.3c0.5-0.3,0.6-0.9,0.3-1.4
		c-0.3-0.5-0.9-0.6-1.4-0.3l-0.1,0.1c-0.6,0.4-3.7,2.4-7.7,4.6c-4,2.2-9,4.6-13.6,6c-0.5,0.2-0.8,0.7-0.7,1.2
		C861.7,372.6,862.3,372.9,862.8,372.8L862.8,372.8z"/>
	<path id="XMLID_322_" fill="#C8CBE3" d="M911.5,389.1c-0.1,0.1-0.2,0.3-0.3,0.3c-4.3,3.5-6.8,7.4-8.3,11.1
		c-1.5,3.7-1.9,7.3-1.9,10.1c0,2.4,0.3,4.3,0.5,5.4c0.1,0.3,0.1,0.6,0.1,0.8c0,0.1,0,0.1,0,0.2c0,0.3-0.1,0.5-0.2,0.6
		c-0.1,0.1-0.1,0.2-0.2,0.2c-0.1,0.1-0.2,0.2-0.3,0.3c-0.2,0.1-0.5,0.3-0.8,0.5c-0.6,0.3-1.5,0.8-2.5,1.3c-2,1-4.7,2.3-7.3,3.6
		c-3.9,1.9-7.8,3.7-9.6,4.5c1.4,2.5,5.5,9.7,11,20.3c0.2,0.3,0.1,0.8-0.1,1.1c-2.7,3.4-5.7,9-8.7,15.8s-5.9,14.6-8.6,22.3
		c-5.1,14.7-9.3,29.2-11.1,35.8c0-2.5,0-4.9,0-7.4c3.6-12.2,9.9-32.6,16.6-48.6c3.3-7.8,6.6-14.5,9.8-18.7
		c-5.8-11.3-10-18.6-11-20.3c-0.1-0.2-0.2-0.4-0.2-0.4c-0.1-0.2-0.2-0.5-0.1-0.8c0.1-0.3,0.3-0.5,0.5-0.6c0,0,0.6-0.3,1.6-0.8
		c1-0.5,2.4-1.1,4-1.9c3.2-1.5,7.2-3.4,10.3-4.9c2.1-1,3.8-1.9,4.6-2.4c0,0,0,0,0,0c0,0,0,0,0,0c-0.1-0.3-0.1-0.8-0.2-1.4
		c-0.2-1.1-0.3-2.7-0.3-4.5c0-3,0.4-6.8,2-10.8c1.5-3.9,4.2-7.9,8.5-11.6C910.3,388.5,910.9,388.8,911.5,389.1z"/>
	<path id="XMLID_336_" fill="#C8CBE3" d="M848.1,426.6c0.3,0.4,0.3,1-0.1,1.3L833,441.7c0-0.3,0-0.4,0-0.4l-1,0l0.7,0.7l0.3-0.3
		c0,0.3,0,0.6,0,1.1c0,1-0.1,2.4-0.2,4.1c-0.2,3.5-0.3,8.5-0.5,14.2c-0.4,11.5-0.8,26.1-0.8,38.7c0,5.2,0.1,10,0.2,14.1
		c0,0.6,0.1,1.1,0.1,1.7c-0.3,3-0.6,6-0.9,9c-0.2-0.2-0.3-0.4-0.3-0.6c-0.4-2.4-0.6-5.8-0.8-10c-0.1-4.1-0.2-8.9-0.2-14.1
		c0-25.2,1.5-58.6,1.5-58.6c0-0.3,0.1-0.5,0.3-0.7l14.6-13.4l-4.6-6.3c-0.3-0.4-0.3-0.9,0.1-1.3l22.9-24.3c0,0,0.1-0.1,0.1-0.1
		c0.1,1,0.1,1.9,0.2,2.7l-21.2,22.5L848.1,426.6z"/>
	<path id="XMLID_334_" fill="#C8CBE3" d="M832,441.2l1,0c0,0,0,0.1,0,0.4l-0.3,0.3L832,441.2z"/>
	<path id="XMLID_359_" fill="#3F5580" d="M881.6,740.3c-2.7,0.1-5.2,0.2-7.6,0.2c-9.9,0-17.9-0.9-24.4-2.6
		c-6.1-1.5-10.9-3.8-14.9-6.7c0-0.8-0.1-1.6-0.2-2.5c0.2,0,0.3,0.1,0.4,0.2c3.8,3,8.7,5.4,15.1,7c6.4,1.6,14.2,2.5,24,2.5
		c2.3,0,4.8,0,7.4-0.2C881.4,739,881.5,739.6,881.6,740.3z"/>
	<path id="XMLID_361_" fill="#3F5580" d="M954.4,765.8c-0.2,0.8-0.3,1.6-0.5,2.4c-3,1.3-6.1,2-9.1,2.3c-0.3,0-0.6-0.1-0.8-0.4
		c-0.2-0.2-0.3-0.6-0.2-0.9c2.1-8.3,2.8-16.8,2.9-23.7c0.7-0.4,1.4-0.7,2-1.1c0,6.9-0.6,15.3-2.6,23.9
		C948.8,767.9,951.6,767.1,954.4,765.8z"/>
	<path id="XMLID_760_" fill="#364867" d="M884.9,211.2l6,13.8c0.2,0.3,0.5,0.6,0.9,0.6c0.4,0,0.7-0.2,0.9-0.5l5.4-9.4
		c0.3-0.5,0.1-1.1-0.4-1.4c-0.5-0.3-1.1-0.1-1.4,0.4l-4.4,7.7l-5.2-12c-0.2-0.5-0.8-0.7-1.3-0.5
		C884.9,210.1,884.7,210.7,884.9,211.2L884.9,211.2z"/>
	<path id="XMLID_320_" fill="#C8CBE3" d="M907.4,382.5c0,0.4,0,0.9-0.1,1.4c-0.1,0.5-0.6,0.9-1.1,0.9c-0.6-0.1-0.9-0.6-0.9-1.1
		c0-0.4,0.1-0.8,0.1-1.1c0-1.3-0.3-2.3-1-3.3c-0.3-0.5-0.8-0.9-1.3-1.4c-0.1-0.9-0.2-1.7-0.2-2.7c1.4,0.9,2.4,1.9,3.2,2.9
		C906.9,379.3,907.4,380.8,907.4,382.5z"/>
	<path id="XMLID_762_" fill="#C8CBE3" d="M892.4,675.7l0,1c33.8-1.5,48-8.5,48.1-8.6l-0.4-0.9l-1,0.1l1,11l1-0.1l-0.3-0.9
		c0,0-0.1,0-0.2,0.1c-2.5,0.9-23.7,7.9-45.3,7.9c-0.7,0-1.4,0-2,0l0,1l1-0.2c-0.6-2.8-0.7-6.2-0.7-8.3c0-0.6,0-1.1,0-1.4
		c0-0.2,0-0.3,0-0.4l0-0.1L892.4,675.7l0,1L892.4,675.7l-1,0c0,0,0,0.8,0,2c0,2.2,0.1,5.7,0.8,8.8c0.1,0.4,0.5,0.8,1,0.8
		c0.7,0,1.4,0,2.1,0c23.5,0,46.2-8.1,46.3-8.1c0.4-0.2,0.7-0.6,0.7-1l-1-11c0-0.3-0.2-0.6-0.5-0.8c-0.3-0.2-0.6-0.2-0.9,0l0,0
		c-0.7,0.3-14.7,6.9-47.3,8.4c-0.5,0-0.9,0.4-1,1L892.4,675.7z"/>
	<path id="XMLID_763_" fill="#C8CBE3" d="M798.7,679c7,1.3,15.1,2.2,23.3,2.2c0.7,0,1.4,0,2.1,0c0.5,0,0.9-0.3,1-0.8
		c0.7-3,0.8-6.6,0.8-8.8c0-1.2,0-2,0-2c0-0.5-0.4-0.9-1-1c-10.3-0.5-18.8-1.4-25.5-2.6c-0.5-0.1-1.1,0.3-1.2,0.8
		c-0.1,0.5,0.3,1.1,0.8,1.2c6.8,1.1,15.4,2.1,25.8,2.6l0-1l-1,0l0,0.1c0,0.3,0,0.9,0,1.8c0,2.1-0.1,5.6-0.7,8.3l1,0.2l0-1
		c-0.7,0-1.4,0-2,0c-8,0-16-1-22.9-2.2c-0.5-0.1-1.1,0.3-1.2,0.8C797.8,678.4,798.1,678.9,798.7,679L798.7,679z"/>
	<path id="XMLID_764_" fill="#C8CBE3" d="M892.2,502.3c-0.6,6.6-4.2,11.6-7.9,11.1c-2.3-0.3-4.1-2.5-5-5.7c1.1,0.2,2.4,0.4,3,0.5
		c1.9,0.2,3.7-2.7,4.1-6.4c0.4-3.8-0.9-7-2.7-7.2c-0.5-0.1-1.9-0.3-3-0.5c1.5-3,3.7-4.8,6.1-4.5C890.4,490,892.9,495.7,892.2,502.3z
		"/>
	<path id="XMLID_765_" fill="#C8CBE3" d="M877.9,507.5c-1.9-0.2-3.1-3.4-2.7-7.2c0.4-3.8,2.2-6.6,4.1-6.4
		C882.5,494.4,882.2,507.9,877.9,507.5z"/>
	<path id="XMLID_766_" fill="#DEE0EE" d="M886.4,501.8c-0.4,3.8-2.2,6.6-4.1,6.4c-0.6-0.1-1.9-0.3-3-0.5c-0.6-0.1-1.1-0.2-1.4-0.2
		c0.5,0,0.9-0.1,1.3-0.3c2.6-1.8,2.9-9.9,1.1-12.5l0,0c-0.3-0.4-0.7-0.7-1.1-0.8c0.3,0,0.8,0.1,1.3,0.2c1.1,0.2,2.5,0.4,3,0.5
		C885.5,494.8,886.7,498,886.4,501.8z"/>
	<path id="XMLID_767_" fill="#364867" d="M896.4,368.4c1.4,0.4,2.6,0.9,3.6,1.5c1.4,0.9,2.3,1.8,2.9,3.1c0.6,1.3,1,3,1,5.2
		c0,2.8-0.5,6.5-1.6,11c-1,4.6-2.6,10.1-4.5,16.7c-5,17.5-9.4,35-12.7,50.6c-3.3,15.6-5.4,29.2-5.7,39c0,1.1,0.8,2,1.9,2.1
		c1.1,0,2-0.8,2.1-1.9c0.3-9.4,2.4-22.9,5.6-38.3c3.2-15.5,7.6-32.9,12.6-50.3c1.9-6.6,3.4-12.2,4.5-16.9c1.1-4.7,1.7-8.6,1.7-11.9
		c0-1.8-0.2-3.4-0.6-4.8c-0.6-2.2-1.7-4.1-3.4-5.6c-1.7-1.5-3.8-2.5-6.3-3.2c-1.1-0.3-2.2,0.3-2.5,1.3
		C894.8,366.9,895.3,368,896.4,368.4L896.4,368.4z"/>
	<path id="XMLID_768_" fill="#364867" d="M879.6,379.4c-0.3,0.1-0.9,0.3-1.6,0.5c-1.3,0.3-3.1,0.8-5.3,1.8
		c-3.2,1.5-7.2,4.2-11.7,9.3c-4.5,5.1-9.7,12.6-15.4,23.8c-6.4,12.6-10.3,26.2-12.5,36.7c-2.2,10.5-2.9,17.8-2.9,17.8
		c-0.1,1.1,0.7,2.1,1.8,2.2c1.1,0.1,2.1-0.7,2.2-1.8l0-0.1c0.1-0.8,0.8-8.1,3-18.2c2.2-10.1,6-22.9,12-34.7
		c8.6-16.8,15.7-24.7,20.9-28.6c2.6-2,4.8-2.9,6.6-3.5c0.9-0.3,1.7-0.5,2.4-0.7c0.7-0.2,1.4-0.4,2.1-0.6c1-0.4,1.5-1.6,1.1-2.6
		C881.8,379.5,880.6,379,879.6,379.4L879.6,379.4z"/>
	<path id="XMLID_769_" fill="#C8CBE3" d="M818.2,495.8c-2.4,14.9-3.3,26.5-3.3,34.3c0,2.6,0.1,4.7,0.3,6.4c0.2,1.7,0.4,3,0.7,3.9
		c0.5,1.3,1.1,2.2,1.7,2.8c0.6,0.6,1.4,0.8,1.9,0.8c0.6,0,1-0.2,1.1-0.3c0.5-0.3,0.6-0.9,0.4-1.4c-0.3-0.5-0.9-0.6-1.4-0.4l0.2,0.4
		l-0.2-0.4l0,0l0.2,0.4l-0.2-0.4l0,0l-0.1,0c-0.1,0-0.3,0-0.6-0.3c-0.3-0.3-0.7-0.8-1.2-2c-0.2-0.6-0.5-1.8-0.6-3.4
		c-0.2-1.6-0.3-3.7-0.3-6.2c0-7.6,0.9-19.2,3.3-34c0.1-0.5-0.3-1.1-0.8-1.1C818.8,494.9,818.3,495.3,818.2,495.8L818.2,495.8z"/>
	<path id="XMLID_770_" fill="#C8CBE3" d="M836.8,493.5c-1.5,12.9-3.3,25.3-5.4,34.4c-1.1,4.5-2.2,8.3-3.3,10.8
		c-0.6,1.3-1.2,2.2-1.7,2.8c-0.3,0.3-0.5,0.5-0.7,0.6c-0.2,0.1-0.4,0.1-0.5,0.1l-0.2,0c-0.5-0.1-1.1,0.2-1.2,0.7
		c-0.1,0.5,0.2,1.1,0.7,1.2c0.2,0.1,0.5,0.1,0.7,0.1c0.5,0,1-0.2,1.5-0.4c0.8-0.5,1.5-1.2,2.1-2.2c1.1-1.7,2.1-4.2,3-7.4
		c2.8-9.4,5.2-24.5,7-40.4c0.1-0.5-0.3-1-0.9-1.1C837.3,492.6,836.8,493,836.8,493.5L836.8,493.5z"/>
	<path id="XMLID_771_" fill="#364867" d="M819.1,544.5l1.5,0.3c0.8,0.2,1.6-0.4,1.8-1.2c0.2-0.8-0.4-1.6-1.2-1.8l-1.5-0.3
		c-0.8-0.2-1.6,0.4-1.8,1.2C817.8,543.5,818.3,544.3,819.1,544.5"/>
	<path id="XMLID_772_" fill="#364867" d="M823.7,544.8l1.5,0.3c0.8,0.2,1.6-0.4,1.8-1.2c0.2-0.8-0.4-1.6-1.2-1.8l-1.5-0.3
		c-0.8-0.2-1.6,0.4-1.8,1.2C822.3,543.8,822.8,544.6,823.7,544.8"/>
	<path id="XMLID_773_" fill="#C8CBE3" d="M819.8,498.7c0.9-5.1,2.8-9.5,5.1-12.5c1.1-1.5,2.3-2.7,3.5-3.5c1.2-0.8,2.2-1.2,3.2-1.2
		c0.7,0,1.2,0.2,1.8,0.6c0.8,0.6,1.7,1.7,2.3,3.5c0.6,1.9,1,4.4,1,7.8c0,0.8,0,1.7-0.1,2.6c0,0.6,0.4,1,0.9,1c0.6,0,1-0.4,1-0.9
		c0-1,0.1-1.9,0.1-2.7c0-4.7-0.7-8-1.9-10.3c-0.6-1.2-1.4-2-2.2-2.6c-0.9-0.6-1.9-0.9-2.9-0.9c-1.5,0-2.9,0.6-4.3,1.5
		c-2.1,1.4-4.1,3.7-5.7,6.7c-1.7,3-3,6.6-3.7,10.6c-0.1,0.5,0.3,1.1,0.8,1.2C819.2,499.6,819.7,499.2,819.8,498.7L819.8,498.7z"/>
	<path id="XMLID_774_" fill="#364867" d="M820.8,499.8c1.1-10.3,3.1-17.7,5.3-22.3c1.1-2.3,2.2-3.9,3.2-4.9c0.5-0.5,1-0.8,1.3-1
		c0.4-0.2,0.7-0.2,0.9-0.2c0.4,0,0.7,0.1,1.2,0.5c0.7,0.6,1.6,2,2.2,4.2c0.6,2.2,1,5.1,1,8.6c0,3.1-0.3,6.6-1,10.6
		c-0.2,1.1,0.5,2.1,1.6,2.3c1.1,0.2,2.1-0.5,2.3-1.6c0.7-4.2,1-7.9,1-11.3c0-5.1-0.7-9.2-2.1-12.1c-0.7-1.5-1.5-2.7-2.6-3.6
		c-1.1-0.9-2.4-1.5-3.8-1.5c-0.9,0-1.8,0.2-2.7,0.6c-1.5,0.7-2.8,1.9-4,3.5c-1.8,2.4-3.4,5.9-4.8,10.5c-1.4,4.6-2.5,10.3-3.3,17.3
		c-0.1,1.1,0.7,2.1,1.8,2.2C819.6,501.7,820.6,500.9,820.8,499.8L820.8,499.8z"/>
	<path id="XMLID_775_" fill="#364867" d="M1062.9,1115.8c0,0,3.5,13-5,18s-33,7-39,20s47.5,8.5,63,7.5s19-5.5,19.5-14.5s0-31,0-31
		H1062.9z"/>
	<path id="XMLID_776_" fill="#364867" d="M1131.9,1134.8c0,0,3.5,13-5,18s-33,7-39,20s47.5,8.5,63,7.5s19-5.5,19.5-14.5s0-31,0-31
		H1131.9z"/>
	<path id="XMLID_312_" fill="#54729F" d="M1187.3,781.8c-0.1,0.7-0.1,1.4-0.2,2.1c-1.2,15.1-4.4,30.5-11.7,39.9
		c-1.9,11.6,1.3,225.1-0.2,310.9c0,0.7,0,1.4,0,2c-0.1,2.7-0.1,5.3-0.2,7.7c-24,5.6-48,0-48,0l-1.1-11.6l-0.2-2.1l-31.5-339.6
		l-0.2-2l-4.5-48.8h96.9C1186.5,740.3,1188.8,760.4,1187.3,781.8z"/>
	<path id="XMLID_319_" fill="#54729F" d="M1135,789.5c-0.1,0.7-0.3,1.4-0.4,2c-2.4,11.2-6.4,21.8-12.6,28.9
		c-1.7,6.9-4.7,90.1-8.3,171.2c-0.2,4.9-0.4,9.8-0.7,14.7c-1.9,42-4,82-6.2,109.2c-0.1,0.7-0.1,1.4-0.2,2c-0.2,3-0.5,5.8-0.7,8.4
		c-24.4,5.3-48,0-48,0l-0.5-11.7l-0.1-2.1l-13.2-307.9l-0.1-3.2l-1.4-33.7l-0.1-3.2l-1-23.2h96.9
		C1138.4,741.2,1139.8,766.2,1135,789.5z"/>
	<path id="XMLID_286_" fill="#3F5580" d="M1113.7,991.7c-0.2,4.9-0.4,9.8-0.7,14.7l-18.4-200.4c0-0.5,0.4-1,0.9-1.1
		c0.5,0,1,0.4,1.1,0.9L1113.7,991.7z"/>
	<path id="XMLID_780_" fill="#3F5580" d="M1139.9,785.2c0,0-0.2,1.6-0.2,4c0,4.3,0.5,11.3,3,17.9c1.3,3.3,3.1,6.4,5.7,9.1
		c2.6,2.6,5.9,4.7,10.2,5.7c0.5,0.1,1.1-0.2,1.2-0.7c0.1-0.5-0.2-1.1-0.7-1.2c-3.9-0.9-6.9-2.8-9.2-5.1c-3.5-3.5-5.6-8.4-6.7-13.1
		c-1.2-4.7-1.4-9.3-1.4-12.4c0-1.2,0-2.1,0.1-2.8c0-0.3,0-0.6,0-0.8l0-0.2l0-0.1c0.1-0.5-0.3-1-0.9-1.1
		C1140.4,784.3,1140,784.7,1139.9,785.2L1139.9,785.2z"/>
	<path id="XMLID_311_" fill="#3F5580" d="M1161,1009.2c0,63.2-0.1,116.6-0.1,126.1c0,1,0,1.5,0,1.5c0,0.2,0,0.3-0.1,0.5
		c-0.6,0-1.2,0-1.8-0.1c-0.1-0.1-0.1-0.3-0.1-0.4v-2.6c0-1.7,0-4.3,0-7.5c0-6.5,0-15.9,0-27.5c0-23.2,0-55.1,0-90
		c0-88-0.1-194.7-0.7-227.7c-0.1-4.7-0.2-7.9-0.3-9.3c0-0.4-0.1-0.6-0.1-0.6h0c-0.2-0.5,0.1-1,0.6-1.2c0.5-0.2,1.1,0,1.3,0.5
		c0,0.1,0.1,0.2,0.1,0.3l0,0.2c0,0.1,0,0.3,0,0.4c0,0.3,0.1,0.8,0.1,1.3c0.1,1.1,0.1,2.7,0.1,4.7c0.1,4,0.2,9.7,0.2,16.8
		c0.2,14.2,0.3,34.1,0.3,57.2C1160.9,897.9,1161,956.9,1161,1009.2z"/>
	<path id="XMLID_308_" fill="#3F5580" d="M1175.3,1134.6c0,0.7,0,1.4,0,2c-3,0.5-6.6,0.7-10.6,0.7c-1.3,0-2.6,0-3.9-0.1
		c-0.6,0-1.2,0-1.8-0.1c-11.4-0.5-24.4-2.4-33-4.5l-0.2-2.1c0.1,0,0.2,0,0.3,0c8.4,2.1,21.4,4,32.8,4.5c0.7,0,1.3,0.1,2,0.1
		c1.3,0,2.5,0.1,3.8,0.1C1168.8,1135.4,1172.4,1135.1,1175.3,1134.6z"/>
	<path id="XMLID_296_" fill="#3F5580" d="M1106.8,1115.5c-0.1,0.7-0.1,1.4-0.2,2c-5.9,0.6-11.6,0.9-17.2,0.9
		c-11.2,0-21.9-1.3-32-4.2l-0.1-2.1c0.1,0,0.2,0,0.3,0c10,2.9,20.6,4.2,31.8,4.2C1095.1,1116.5,1100.9,1116.2,1106.8,1115.5z"/>
	<path id="XMLID_278_" fill="#3F5580" d="M1050.8,781c0,6.2-0.7,11.1-2.1,15.2c-1.1,3.1-2.6,5.8-4.6,8.2l-0.1-3.2
		c1.2-1.7,2.1-3.5,2.8-5.6c1.3-3.8,2-8.5,2-14.6c0-2.9-0.1-6.1-0.4-9.6c0-0.6,0.4-1,0.9-1.1c0.6,0,1,0.4,1.1,0.9
		C1050.7,774.8,1050.8,778.1,1050.8,781z"/>
	<path id="XMLID_785_" fill="#3F5580" d="M1064.3,764c4.1,3.2,9.2,5.7,15.8,7.4c6.6,1.7,14.6,2.6,24.5,2.6c2.5,0,5.2-0.1,8-0.2
		c0.6,0,1-0.5,1-1c0-0.6-0.5-1-1-1c-2.8,0.1-5.4,0.2-7.9,0.2c-9.7,0-17.6-0.9-24-2.5c-6.4-1.6-11.2-4-15.1-7
		c-0.4-0.3-1.1-0.3-1.4,0.2C1063.8,763.1,1063.9,763.7,1064.3,764L1064.3,764z"/>
	<path id="XMLID_786_" fill="#56474C" d="M1066.1,346.6c0,5.7,7.1,61.3-10.4,71c40.4,20.6,59.9,12.6,57.4,5.6
		C1110.6,416.2,1066.1,346.6,1066.1,346.6z"/>
	<path id="XMLID_787_" fill="#56474C" d="M1063.9,294.2c0,0-34.7,4.1-8.2,41C1085.1,293.1,1063.9,294.2,1063.9,294.2z"/>
	<path id="XMLID_788_" fill="#54729F" d="M1192.1,780.9c-70.7,14.7-131.8,17.1-157.5-26.7c0,0-0.9-48,2.6-117.2
		c0.6-11.9,1.3-24.4,2.3-37.4c1.1-16,2.5-32.7,4.1-49.9c2.1-22.2,6-40,11-54.2c7.3-20.9,17-34,26.8-42.3c4.3-3.7,8.7-6.3,12.8-8.3
		c-1.6,3.3-3.1,7.8-4.2,12.8c-2.4,11.4,1.7,36,1.7,36c41.9-19.6,52.7-37.1,44.8-50.6l0,0c4.1,1.3,7.9,3,11.6,5.1
		c25.7,14.8,40.1,48,40.1,93.6C1188.1,602.9,1192.1,780.9,1192.1,780.9z"/>
	<path id="XMLID_789_" fill="#54729F" d="M1090,447.1l-31.9,93.3c0,0-5.8-0.4-12.9-4.3c-3.9-2.1-2.4,0.4-6.4-4.3
		C1038.1,531.1,1064.4,455.1,1090,447.1z"/>
	<path id="XMLID_309_" fill="#FDB382" d="M1138.9,416.9c-2.7,19-2.5,32.4-2.5,32.4c-15.5,6.9-29,8.4-41.1,5.8c0,0,1.2-13.1,2.5-30.5
		c0-0.7,0.1-1.3,0.2-2h0c-42,0.7-49.2-58.6-46.6-94.6c4.8-68.1,88-59.4,102.6-26.5C1174.6,348.3,1141.6,397.9,1138.9,416.9z"/>
	<path id="XMLID_791_" fill="#56474C" d="M1056.2,307c19.9,31.1,54.9,36.7,54.9,36.7c8,60.4,10,76.1-9,87.2c56,10.1,74-17.5,78-32.2
		c4-14.7,10.1-127.8-62-131.2C1046.1,264.1,1056.2,307,1056.2,307z"/>
	<polygon id="XMLID_792_" fill="#364867" points="1128,513.3 1049.4,488.6 1051.6,636 1130.6,662.9 	"/>
	<path id="XMLID_793_" fill="#FDB382" d="M1069.6,560.5c-2.2-3.5-5.3-14.4-9.3-22.5s-4.9-7.8-9.7-11.9s-5.2,6.5-5.2,6.5
		c-13.1,3.4-14.1,9-14.1,9s-2.3,20.7,8.7,33.7s31.2,17.3,31.2,17.3l5.3-19.8L1069.6,560.5z"/>
	<path id="XMLID_332_" fill="#FDB382" d="M1134,652.7c-14.4,4.3-62.9-60.1-62.9-60.1l5.3-19.8l42.6,25.6l1.8,1.1l0,0
		c0,0,0.1-0.4,0.2-1.2l0.1-0.5c0-0.3,0.1-0.5,0.1-0.8c1.8-12.7,10-68.3,13.1-72.9c3.5-5.2,28,1.3,29.5,17.5
		C1165.3,557.9,1149.5,648.1,1134,652.7z"/>
	<path id="XMLID_795_" fill="#54729F" d="M1119.7,554.5c5.3-52.1,19.5-90,39.2-87.1c19.7,2.9,19.8,40.8,10,101.8
		C1137.4,572.8,1121.8,556.2,1119.7,554.5z"/>
	<path id="XMLID_796_" fill="#3F5580" d="M1119.7,554.5l1,0.1c2.6-25.1,7.2-46.8,13.4-62.2c3.1-7.7,6.7-13.8,10.5-17.9
		c1.9-2.1,3.9-3.6,5.9-4.7c2-1,4.1-1.6,6.3-1.6c0.6,0,1.3,0,2,0.1c2.7,0.4,5,1.5,6.9,3.3c2.9,2.7,5.1,6.9,6.5,12.8
		c1.4,5.9,2.1,13.2,2.1,22c0,16.4-2.3,37.5-6.4,62.6l1,0.2l-0.1-1c-3,0.3-5.9,0.5-8.6,0.5c-12.7,0-22.2-3.4-28.7-6.9
		c-3.3-1.8-5.8-3.6-7.7-5.1c-0.9-0.7-1.7-1.4-2.2-1.9c-0.6-0.5-1-0.9-1.2-1.1L1119.7,554.5l1,0.1L1119.7,554.5l-0.6,0.8
		c0.2,0.1,0.6,0.5,1.2,1.1c4.1,3.7,17.1,14.4,39.9,14.4c2.8,0,5.8-0.2,8.9-0.5c0.4-0.1,0.8-0.4,0.9-0.8c4-25.1,6.4-46.4,6.4-62.9
		c0-11.8-1.2-21.3-3.9-28.1c-1.4-3.4-3.1-6.2-5.3-8.2c-2.2-2-4.9-3.3-8-3.8c-0.8-0.1-1.5-0.2-2.3-0.2c-2.5,0-4.9,0.6-7.2,1.8
		c-4,2.1-7.6,5.8-10.9,10.8c-4.9,7.6-9,18.2-12.4,31c-3.4,12.9-6,28-7.6,44.5c0,0.3,0.1,0.7,0.4,0.9L1119.7,554.5z"/>
	<path id="XMLID_302_" fill="#CA8E68" d="M1119,598.4l1.8,1.1l-1.5,9.1c-0.1,0.5-0.6,0.9-1.2,0.8c-0.5-0.1-0.9-0.6-0.8-1.2
		L1119,598.4z"/>
	<path id="XMLID_798_" fill="#FDB382" d="M1106.1,662.5c-0.5,0-0.9,0-1,0c-3.4,1-6.9,2-10,3.2c-1,0.4-2.1,0.5-3.3,0.5
		c-10.9,0-29-13.4-29-13.4c-0.1,0-12-7.8-25.5-16c-19.6-11.9-21.8-17.3-19.1-30.5c2.5-12.3,21.5-66.1,27.6-81.2
		c4,4.7-4.4,8.8-0.5,11c-0.6,4.3-1.1,8.8-1.6,13.5c-1.6,17.2-2.5,27-3.6,43c-0.1,1.1,25,40.5,25,40.5c0,0,18.8-1.7,23.8,0
		c5,1.7,11.3,8.3,17,11.7c5.7,3.3-9.1,3-15.7,0c4.2,5.8,6.6,6.6,6.6,6.6l20.8,7.1c1.7,0.6,7.4,0.4,8.3,2.8
		C1126.7,663.5,1110.4,662.5,1106.1,662.5z"/>
	<path id="XMLID_799_" fill="#CA8E68" d="M1075.1,368.4c0,3.5,0,7.6-0.2,11.3c-0.1,1.8-0.3,3.6-0.6,5c-0.3,1.5-0.6,2.7-1.1,3.5
		c-0.3,0.6-0.5,1.1-0.5,1.7c0,0.4,0.1,0.8,0.3,1.2c0.3,0.6,0.9,1,1.4,1.3c0.8,0.4,1.7,0.6,2.5,0.7c0.8,0.1,1.5,0.1,1.9,0.1
		c0.2,0,0.3,0,0.3,0c0.6,0,1-0.5,1-1c0-0.6-0.5-1-1-1l-0.1,0l-0.2,0c-0.5,0-1.7,0-2.7-0.3c-0.5-0.1-0.9-0.3-1.1-0.5
		c-0.1-0.1-0.2-0.2-0.2-0.2c0-0.1-0.1-0.1-0.1-0.2c0-0.1,0-0.4,0.2-0.8c0.6-1.1,1-2.5,1.3-4.1c0.9-4.7,0.9-11.4,0.9-16.7
		c0-0.6-0.4-1-1-1C1075.5,367.4,1075.1,367.9,1075.1,368.4L1075.1,368.4z"/>
	<path id="XMLID_800_" fill="#CA8E68" d="M1073.1,402.2c1.1,0.9,2.4,1.5,3.9,1.8c1.4,0.4,3,0.5,4.6,0.5c1.8,0,3.7-0.2,5.3-0.6
		c1.6-0.4,2.9-1,3.9-1.8c0.4-0.4,0.5-1,0.1-1.4c-0.4-0.4-1-0.5-1.4-0.1c-0.5,0.5-1.7,1-3.1,1.3c-1.4,0.4-3.1,0.6-4.8,0.6
		c-1.4,0-2.8-0.1-4.1-0.5c-1.2-0.3-2.3-0.8-3.1-1.4c-0.4-0.4-1.1-0.3-1.4,0.1C1072.6,401.2,1072.7,401.8,1073.1,402.2L1073.1,402.2z
		"/>
	<path id="XMLID_801_" fill="#CA8E68" d="M1082.3,410.1h4.5c0.6,0,1-0.4,1-1c0-0.6-0.4-1-1-1h-4.5c-0.6,0-1,0.4-1,1
		C1081.3,409.6,1081.7,410.1,1082.3,410.1"/>
	<path id="XMLID_802_" fill="#364867" d="M1084.8,346c1.6-0.5,3.4-0.8,5.2-0.8c1.7,0,3.4,0.2,4.8,0.6c1.5,0.4,2.7,1,3.4,1.6
		c0.4,0.4,1.1,0.3,1.4-0.1c0.4-0.4,0.3-1.1-0.1-1.4c-1.1-0.9-2.5-1.6-4.2-2c-1.6-0.5-3.5-0.7-5.4-0.7c-2,0-4,0.3-5.8,0.9
		c-0.5,0.2-0.8,0.7-0.6,1.3C1083.7,345.9,1084.3,346.2,1084.8,346L1084.8,346z"/>
	<path id="XMLID_803_" fill="#364867" d="M1055.4,346c1.6-0.5,3.4-0.8,5.2-0.8c1.7,0,3.4,0.2,4.8,0.6c1.5,0.4,2.7,1,3.4,1.6
		c0.4,0.4,1.1,0.3,1.4-0.1c0.4-0.4,0.3-1.1-0.1-1.4c-1.1-0.9-2.5-1.6-4.2-2c-1.6-0.5-3.5-0.7-5.4-0.7c-2,0-4,0.3-5.8,0.9
		c-0.5,0.2-0.8,0.7-0.6,1.3C1054.3,345.9,1054.8,346.2,1055.4,346L1055.4,346z"/>
	<path id="XMLID_298_" fill="#CA8E68" d="M1108.9,423.3c-0.1,0-3,1-10.9,1.3c-0.1,0-0.1,0-0.2,0c0-0.7,0.1-1.3,0.2-2
		c7.5-0.3,10.2-1.2,10.3-1.2v0c0.5-0.2,1.1,0.1,1.3,0.6C1109.7,422.5,1109.5,423.1,1108.9,423.3z"/>
	<path id="XMLID_805_" fill="#FDB382" d="M1091.7,493.7c0,0-4.1-24.6-1.7-36c1.1-5.1,2.7-9.6,4.2-12.8c10.1-4.7,19-5.2,24.1-5
		c6.4,0.3,12.5,1.4,18.2,3.2l0,0C1144.4,456.6,1133.6,474.1,1091.7,493.7z"/>
	<path id="XMLID_290_" fill="#3F5580" d="M1187.3,781.8c-0.1,0.7-0.1,1.4-0.2,2.1c-18.3,3.7-36,6.5-52.5,7.8
		c-6.5,0.5-12.9,0.8-19.1,0.8c-7.4,0-14.5-0.4-21.3-1.3c-9.9-1.2-19-3.5-27.3-6.9c-9.4-3.9-17.6-9.4-24.4-16.6l-0.1-3.2
		c6.9,8,15.4,13.8,25.3,17.9c7.9,3.3,16.8,5.5,26.3,6.7c6.8,0.9,14,1.3,21.4,1.3c6.3,0,12.8-0.3,19.5-0.8
		C1151.5,788.2,1169,785.4,1187.3,781.8z"/>
	<path id="XMLID_807_" fill="#FDB382" d="M568.4,609.2c8-3.9,17.2-15.7,25.2-20.3c8-4.6,11.3-6.1,13.3-5c2.1,1.1-7.7,12.5-7.7,12.5
		c12.1-2.2,21-10.7,28.7-16.6c7.7-5.9,5,4.8,0,11.6c12.4-10.3,12.4-11.8,14.5-7.5s-8.6,15.7-8.6,15.7c8.9-7.8,14.5-10,13.3-4.3
		c-1.2,5.7-13,19-23.1,22.3c17.8-5.9,28.1-9.8,15.4,0c-12.7,9.8-48.9,18-64.3,12.3C559.8,624.1,568.4,609.2,568.4,609.2z"/>
	<path id="XMLID_424_" fill="#8EBFDE" d="M578.4,636.9c-65.3,27.5-106.7,34.1-129.6,29.6c-0.7-0.1-1.4-0.3-2-0.5
		c-6.3-1.5-11-3.9-14.4-6.9c-15.3-14-38.7-74.5-46.3-104.9c-7.7-30.4,1.2-50.6,17.4-51.9c10.2-0.8,21.5,19.8,31.5,43.7
		c1.5,3.7,3.1,7.5,4.6,11.4c9.7,25.2,17.5,51,20.8,58.3c6.9,15.5,107.4-18,107.4-18C587,623.1,578.4,636.9,578.4,636.9z"/>
	<path id="XMLID_809_" fill="#364867" d="M418.8,1108.5c0,0-3.2,12,4.6,16.7s30.6,6.5,36.1,18.5c5.6,12-44,7.9-58.4,6.9
		c-14.4-0.9-17.6-5.1-18.1-13.4c-0.5-8.3,0-28.7,0-28.7H418.8z"/>
	<path id="XMLID_810_" fill="#364867" d="M354.9,1126.1c0,0-3.2,12,4.6,16.7s30.6,6.5,36.1,18.5c5.6,12-44,7.9-58.4,6.9
		c-14.4-0.9-17.6-5.1-18.1-13.4c-0.5-8.3,0-28.7,0-28.7H354.9z"/>
	<path id="XMLID_456_" fill="#BB9668" d="M394.1,760.6l-33.7,362.8l-0.2,2l-0.9,9.5c0,0-22.2,5.2-44.5,0c-0.1-2.4-0.1-5-0.2-7.8
		c0-0.7,0-1.4,0-2.1c-1.4-79.9,1.6-276.5-0.2-287.2c-16.7-21.5-10.2-77.3-10.2-77.3H394.1z"/>
	<path id="XMLID_460_" fill="#BB9668" d="M438.7,761.4l-14.8,346.1l-0.1,2l-0.4,8.4c0,0-21.9,4.9-44.5,0c-0.2-2.6-0.5-5.3-0.7-8.2
		c-0.1-0.7-0.1-1.5-0.2-2.2c-2-25.7-4-63.7-5.8-103.2c-0.2-4.2-0.4-8.3-0.6-12.5c-3.3-74.6-6.1-150.6-7.6-157
		c-18.1-20.4-15.2-73.4-15.2-73.4H438.7z"/>
	<path id="XMLID_431_" fill="#8EBFDE" d="M450.3,782c-25.7,43.7-102.3,25.9-150.3,3.9c0,0-3.2-155.2-3.2-216.2
		c0-45.6,14.4-78.9,40-93.6c3.8-2.2,7.7-3.9,12-5.3c0.6-0.2,1.3-0.4,1.9-0.6c5-1.4,10.3-2.3,15.8-2.5c5.8-0.3,13.1,0.1,23.5,6.8
		c0.8,0.5,1.6,1,2.4,1.6c1.8,1.3,3.6,2.7,5.6,4.3c16.4,13.8,38,42,43.3,97C452.1,690.4,450.3,782,450.3,782z"/>
	<path id="XMLID_814_" fill="#FDB382" d="M390.8,472.7c-0.8-4.3-1.7-9.2-2.7-14.4c41.8-3.7,42.7-63.5,36.4-99
		c-12-67.2-93.8-49.8-104.8-15.5c-15.6,48.7,22.5,94.4,27.1,113.1c1,3.9,1.8,7.6,2.5,11C362.7,473,376.8,474.3,390.8,472.7z"/>
	<path id="XMLID_815_" fill="#8EBFDE" d="M349.3,467.9c2.6,12.7,3.4,21,3.4,21c16.2,5.2,29.8,5.3,41.4,1.4c0,0-1.4-7-3.4-17.6
		C376.8,474.3,362.7,473,349.3,467.9z"/>
	<path id="XMLID_816_" fill="#CA8E68" d="M388,458.2c-1.6,0-3,0.1-4.4,0.1c-6.4,0-11.2-0.5-14.3-0.9c-1.6-0.2-2.7-0.5-3.5-0.6
		c-0.4-0.1-0.7-0.2-0.8-0.2c-0.1,0-0.2,0-0.2-0.1l0,0l0,0c-0.5-0.2-1.1,0.1-1.2,0.7c-0.2,0.5,0.1,1.1,0.7,1.2
		c0.1,0,6.4,1.9,19.5,1.9c1.4,0,2.9,0,4.5-0.1c0.6,0,1-0.5,1-1C389.1,458.6,388.6,458.2,388,458.2L388,458.2z"/>
	<path id="XMLID_817_" fill="#AEB6CC" d="M410.7,329.4c-3.2,8.4-20.7,9.6-38.2,9.5c-17.5-0.1-8,18.5-17,24.7c-9,6.2,1.5,18,0,27.8
		c-1.5,9.9-2.5-8.9-8.5-11.5s-15,10.8-5.5,25.8s11,14.2,11,14.2s-10.9,13-16.7,13.5c-21.3-37.1-27.1-57.5-19.9-85
		c7.1-27.6,23.8-38.6,46-39.1S406.9,312.5,410.7,329.4z"/>
	<path id="XMLID_818_" fill="#CA8E68" d="M397.2,380.4c0,0,2.4,4.4,5.1,9.1c1.4,2.4,2.9,4.9,4.2,7c0.7,1.1,1.3,2,1.9,2.9
		c0.6,0.8,1.1,1.5,1.6,2c0.3,0.4,0.4,0.6,0.4,0.9c0,0.2-0.1,0.4-0.2,0.7c-0.2,0.5-0.8,1.1-1.4,1.7c-1,0.9-2.2,1.6-3.2,2.2
		c-0.5,0.3-0.9,0.5-1.2,0.7c-0.2,0.1-0.3,0.1-0.4,0.2l-0.1,0l0,0c-0.5,0.2-0.7,0.8-0.5,1.3c0.2,0.5,0.8,0.7,1.3,0.5
		c0,0,1.8-0.8,3.7-2.1c0.9-0.6,1.9-1.4,2.6-2.2c0.4-0.4,0.7-0.9,0.9-1.4c0.2-0.5,0.4-1,0.4-1.6c0-0.8-0.3-1.6-1-2.3
		c-0.4-0.4-0.8-1-1.4-1.8c-2-2.8-4.8-7.5-7-11.5c-1.1-2-2.2-3.8-2.9-5.2c-0.7-1.3-1.2-2.2-1.2-2.2c-0.3-0.5-0.9-0.7-1.4-0.4
		C397.1,379.3,396.9,379.9,397.2,380.4L397.2,380.4z"/>
	<path id="XMLID_819_" fill="#CA8E68" d="M372.3,364c2.1-1.7,4.6-2.8,6.9-3.3c2.3-0.6,4.4-0.7,5.7-0.7c0.5,0,1,0,1.2,0
		c0.1,0,0.3,0,0.3,0l0.1,0l0,0c0.5,0.1,1-0.3,1.1-0.9c0.1-0.5-0.3-1-0.9-1.1c0,0-0.7-0.1-1.9-0.1c-1.5,0-3.7,0.1-6.2,0.8
		c-2.5,0.6-5.2,1.7-7.6,3.7c-0.4,0.3-0.5,1-0.1,1.4C371.2,364.2,371.8,364.3,372.3,364L372.3,364z"/>
	<path id="XMLID_820_" fill="#CA8E68" d="M406.1,358.4c0.3,0,0.7,0,1,0c3.9,0,6.9,0.5,9.1,1.1c2.2,0.7,3.7,1.5,4.2,2.3
		c0.4,0.4,1,0.5,1.4,0.1c0.4-0.4,0.5-1,0.1-1.4c-1-1.2-2.7-2.1-5.2-2.9c-2.5-0.7-5.7-1.2-9.7-1.2c-0.3,0-0.7,0-1,0c-0.6,0-1,0.5-1,1
		C405.1,358,405.5,358.4,406.1,358.4L406.1,358.4z"/>
	<path id="XMLID_821_" fill="#CA8E68" d="M413.8,425.4c-1,0.7-2.7,1.5-4.6,2.1c-2,0.6-4.3,1-6.6,1c-3.3,0-6.6-0.8-9.2-3
		c-0.4-0.4-1.1-0.3-1.4,0.1c-0.4,0.4-0.3,1.1,0.1,1.4c3,2.6,6.8,3.5,10.5,3.5c2.6,0,5-0.4,7.2-1.1c2.2-0.6,4-1.5,5.2-2.3
		c0.5-0.3,0.6-0.9,0.3-1.4C414.9,425.2,414.3,425.1,413.8,425.4L413.8,425.4z"/>
	<path id="XMLID_822_" fill="#CA8E68" d="M404.7,434.2h-4.7c-0.6,0-1,0.4-1,1c0,0.6,0.4,1,1,1h4.7c0.6,0,1-0.4,1-1
		C405.7,434.7,405.3,434.2,404.7,434.2"/>
	<path id="XMLID_823_" fill="#CA8E68" d="M390.5,390.5c-0.2,0.1-0.8,0.4-1.4,0.6c-2.1,0.6-5.6,1.1-8.9,1.1c-1.7,0-3.2-0.1-4.5-0.4
		c-0.6-0.1-1.2-0.3-1.6-0.5c-0.4-0.2-0.7-0.4-0.8-0.6c-0.4-0.4-1-0.5-1.4-0.1c-0.4,0.4-0.5,1-0.1,1.4c0.4,0.5,0.9,0.8,1.5,1.1
		c0.9,0.4,1.9,0.7,3.1,0.8c1.2,0.2,2.4,0.2,3.8,0.2c2.3,0,4.7-0.2,6.7-0.5c1-0.2,1.9-0.4,2.7-0.6c0.8-0.2,1.4-0.5,2-0.8
		c0.5-0.3,0.6-0.9,0.3-1.4C391.6,390.4,391,390.2,390.5,390.5L390.5,390.5z"/>
	<path id="XMLID_824_" fill="#CA8E68" d="M410.3,392.3c1.6,0.9,3.3,1.2,4.9,1.2c2.2,0,4.3-0.6,5.7-1.3c1.5-0.6,2.4-1.3,2.4-1.3
		c0.5-0.3,0.6-0.9,0.3-1.4c-0.3-0.5-0.9-0.6-1.4-0.3l0,0c-0.1,0-0.9,0.6-2.2,1.1c-1.3,0.5-3,1.1-4.8,1.1c-1.3,0-2.6-0.3-3.9-1
		c-0.5-0.3-1.1-0.1-1.4,0.4C409.6,391.4,409.8,392,410.3,392.3L410.3,392.3z"/>
	<path id="XMLID_825_" fill="#CA8E68" d="M351.5,402.3c-0.9-0.4-1.5-0.8-1.8-1.1c-0.1-0.1-0.2-0.2-0.2-0.3l0-0.1
		c0-0.1,0-0.2,0.1-0.5c0.2-0.4,0.5-0.9,0.8-1.5c0.3-0.6,0.5-1.4,0.5-2.4c0-0.8-0.2-1.7-0.6-2.6c-0.7-1.6-1.5-2.9-2.5-3.8
		c-1-0.9-2.1-1.6-3.3-1.6c-1,0-1.9,0.4-2.7,1.1c-0.8,0.7-1.4,1.8-2,3.1c-0.2,0.5,0,1.1,0.6,1.3c0.5,0.2,1.1,0,1.3-0.6
		c0.5-1.2,1-2,1.5-2.4c0.5-0.5,0.9-0.6,1.3-0.6c0.5,0,1.2,0.3,1.9,1c0.7,0.7,1.5,1.8,2.1,3.2c0.3,0.7,0.4,1.3,0.4,1.8
		c0,0.8-0.3,1.4-0.6,2c-0.2,0.3-0.4,0.6-0.5,1c-0.2,0.4-0.3,0.8-0.3,1.3c0,0.3,0.1,0.7,0.2,1c0.2,0.5,0.6,0.9,1.1,1.2
		c0.5,0.4,1.1,0.7,1.9,1.1c0.5,0.2,1.1,0,1.3-0.5C352.2,403.2,352,402.6,351.5,402.3L351.5,402.3z"/>
	<path id="XMLID_826_" fill="#FDB382" d="M380.7,798.2c-2.3-5.5-9.6-20.3-9.6-20.3l-20.4-3.6c0,0-5.6,19.3,0.8,31.5
		c6.3,12.1,4.5,20.4-4.5,22c-5.7,0.9-4.1,4.5,0.7,6.8c-2.7,0.3-5.9,1-6.2,3.1c-0.2,1.3,0.8,2.6,2.4,3.7c-0.5,0.3-1,0.6-1.5,1
		c-3.8,3.3,3.3,9.8,23.5,2c1.5,2.9-10.5,11.2-5.6,11.4c9.4,0.3,19.2-10.1,24.5-22.2C391.8,817.3,383,803.7,380.7,798.2z"/>
	<path id="XMLID_827_" fill="#8EBFDE" d="M342.4,506.8c9.1,5.6,5.8,58.7,13,127.8c7.5,72.5,20.7,136.7,26.2,150.1
		c-3.2,10.1-22.5,18.7-41.9,11.8c-10.7-15.1-32-86.6-37.5-145.9C297.6,599.9,295,477.5,342.4,506.8z"/>
	<path id="XMLID_828_" fill="#6BA1BA" d="M342.4,506.8l-0.5,0.9c0.8,0.5,1.7,1.7,2.5,3.8c1.3,3.5,2.3,9.3,3,16.8
		c2.2,22.6,2.4,61.1,7.1,106.5c3.8,36.3,9,70.5,13.9,97.3c2.5,13.4,4.9,25,7,34c2.1,9.1,4,15.6,5.4,19l0.9-0.4l-1-0.3
		c-1.1,3.4-4.3,6.9-9.1,9.4c-4.7,2.5-10.9,4.2-17.6,4.2c-4.5,0-9.2-0.7-13.9-2.4l-0.3,0.9l0.8-0.6c-1.3-1.8-2.8-4.5-4.4-8
		c-5.6-12.2-12.7-33.7-18.9-58.5c-6.2-24.8-11.7-53-14-78.9c-1.3-13.7-2.4-32.8-2.4-52.6c0-22.8,1.5-46.7,5.8-64.7
		c2.2-9,5.1-16.6,8.8-21.8c1.9-2.6,3.9-4.6,6.2-6c2.3-1.4,4.7-2.1,7.4-2.1c3.7,0,7.9,1.3,12.7,4.3L342.4,506.8l0.5-0.9
		c-5.1-3.1-9.6-4.6-13.8-4.6c-3.1,0-5.9,0.8-8.5,2.4c-4.4,2.7-8,7.5-10.8,13.7c-4.2,9.3-7,22-8.7,36c-1.7,14.1-2.3,29.5-2.3,44.6
		c0,19.9,1.1,38.9,2.4,52.7c2.7,29.7,9.5,62.4,16.8,89.6c3.7,13.6,7.5,25.8,11.1,35.6c1.8,4.9,3.5,9.2,5.2,12.7
		c1.6,3.6,3.1,6.4,4.5,8.3c0.1,0.2,0.3,0.3,0.5,0.4c4.9,1.7,9.9,2.5,14.5,2.5c7,0,13.5-1.7,18.6-4.4c5-2.7,8.7-6.4,10-10.6
		c0.1-0.2,0.1-0.5,0-0.7c-1.3-3.2-3.2-9.7-5.3-18.8c-6.4-27-15.2-76.7-20.8-131.1c-3.6-34.5-4.6-65-5.8-87.7
		c-0.6-11.3-1.3-20.7-2.4-27.6c-0.5-3.5-1.2-6.3-2-8.5c-0.8-2.2-1.8-3.9-3.3-4.8L342.4,506.8z"/>
	<path id="XMLID_385_" fill="#8B6E4C" d="M391,830.1l-18.6,173.8c0,0.1-0.1,0.3-0.1,0.4c-0.2-4.2-0.4-8.3-0.6-12.5L389,829.9
		c0.1-0.5,0.6-0.9,1.1-0.9C390.7,829,391.1,829.5,391,830.1z"/>
	<path id="XMLID_830_" fill="#8B6E4C" d="M342.1,804.9c-1.8,14.6-7.1,22.4-11.9,26.5c-2.4,2.1-4.6,3.2-6.3,3.9
		c-0.8,0.3-1.5,0.5-2,0.6c-0.2,0.1-0.4,0.1-0.5,0.1l-0.1,0l0,0l0,0c-0.5,0.1-0.9,0.6-0.9,1.1c0.1,0.5,0.6,0.9,1.1,0.9
		c0.1,0,4.8-0.6,10-5.1c5.2-4.5,10.7-12.7,12.5-27.8c0.1-0.5-0.3-1-0.9-1.1C342.6,804,342.1,804.4,342.1,804.9L342.1,804.9z"/>
	<path id="XMLID_831_" fill="#8B6E4C" d="M320.4,794.6v332.3c0,0.6,0.4,1,1,1c0.6,0,1-0.4,1-1V794.6c0-0.6-0.4-1-1-1
		C320.8,793.6,320.4,794.1,320.4,794.6"/>
	<path id="XMLID_396_" fill="#8B6E4C" d="M360.5,1123.3l-0.2,2c-2.3,0.6-16.6,3.8-30.2,3.8c-5.5,0-10.9-0.5-15.4-2.1
		c0-0.7,0-1.4,0-2.1c0.1,0,0.2,0,0.3,0.1c4.2,1.5,9.5,2.1,15.1,2.1c12.6,0,26.2-3,29.3-3.7c0.5-0.1,0.7-0.2,0.7-0.2
		C360.2,1123.3,360.4,1123.3,360.5,1123.3z"/>
	<path id="XMLID_399_" fill="#8B6E4C" d="M423.9,1107.5l-0.1,2c-2.7,0.7-6.9,1.4-11.7,2c-5,0.6-10.7,1.1-16.2,1.1
		c-3.7,0-7.2-0.2-10.3-0.7c-2.8-0.5-5.3-1.2-7.3-2.2c-0.1-0.7-0.1-1.5-0.2-2.2c0.2,0,0.4,0,0.6,0.1c1.7,1.1,4.2,1.8,7.2,2.3
		c3,0.5,6.4,0.7,10,0.7c5.3,0,11-0.5,16-1.1c5-0.6,9.2-1.4,11.8-2C423.7,1107.5,423.8,1107.5,423.9,1107.5z"/>
	<path id="XMLID_834_" fill="#8B6E4C" d="M388,839.8l12,271.7c0,0.6,0.5,1,1,1c0.6,0,1-0.5,1-1l-12-271.7c0-0.6-0.5-1-1-1
		C388.4,838.8,387.9,839.2,388,839.8"/>
	<path id="XMLID_387_" fill="#6BA1BA" d="M394.5,491.2c0,0-9.7,2.9-21.2,2.9c-6.9,0-14.4-1-21-4.3c-0.3-0.2-0.5-0.4-0.5-0.8
		c-0.9-6.4-2.2-14.4-2.9-18c0-0.1,0-0.2,0-0.3c0.6-0.2,1.3-0.4,1.9-0.6c0.6,3.2,2,11.4,2.9,18c6,2.9,13.1,3.9,19.6,3.9
		c9.1,0,17.2-1.9,19.8-2.5l-2.9-15.1c0.8,0.5,1.6,1,2.4,1.6l2.7,14C395.3,490.6,395,491.1,394.5,491.2z"/>
	<path id="XMLID_836_" fill="#8EBFDE" d="M450.3,782c0,0,1.8-91.6-9-204.5c-5.2-55-26.9-83.2-43.3-97"/>
	<path id="XMLID_393_" fill="#6BA1BA" d="M448.8,666.5c-0.7-0.1-1.4-0.3-2-0.5c-1.4-26.8-3.4-56.8-6.4-88.5
		c-1.1-11.7-3-22.1-5.3-31.5c1.5,3.7,3.1,7.5,4.6,11.4c1.2,6.2,2.1,12.8,2.8,19.9C445.4,609.3,447.4,639.5,448.8,666.5z"/>
	
		<ellipse id="XMLID_838_" transform="matrix(0.9949 -0.1011 0.1011 0.9949 -35.8255 43.8371)" fill="#364867" cx="414.4" cy="375.2" rx="2.8" ry="3.4"/>
	
		<ellipse id="XMLID_839_" transform="matrix(0.9949 -0.1011 0.1011 0.9949 -35.9786 40.8131)" fill="#364867" cx="384.5" cy="375.2" rx="2.8" ry="3.4"/>
	
		<ellipse id="XMLID_840_" transform="matrix(0.9949 -0.1011 0.1011 0.9949 -26.265 83.8096)" fill="#364867" cx="813.4" cy="300.9" rx="2.8" ry="3.4"/>
	
		<ellipse id="XMLID_841_" transform="matrix(0.9949 -0.1011 0.1011 0.9949 -25.8305 86.6736)" fill="#364867" cx="841.8" cy="298.1" rx="2.8" ry="3.4"/>
	
		<ellipse id="XMLID_842_" transform="matrix(0.9949 -0.1011 0.1011 0.9949 -30.8297 109.2656)" fill="#364867" cx="1062.2" cy="358.7" rx="2.8" ry="3.4"/>
	
		<ellipse id="XMLID_843_" transform="matrix(0.9949 -0.1011 0.1011 0.9949 -30.8818 112.0953)" fill="#364867" cx="1090" cy="360.6" rx="2.8" ry="3.4"/>
	<polygon id="XMLID_844_" fill="#88C5F3" points="708.3,895.8 669,895.8 669,856.5 619.6,856.5 619.6,895.8 580.3,895.8 
		580.3,945.1 619.6,945.1 619.6,984.5 669,984.5 669,945.1 708.3,945.1 	"/>
	<path id="XMLID_743_" fill="#54729F" d="M835.9,573.4l-40.1-104.1c-0.3-0.8-1-1.3-1.8-1.3l-80.7-4.9c-0.7,0-1.4,0.4-1.6,1.1
		l-0.2,0.4l2.3,0.1l44.5,104.2l75.3,5.3l0.6,1.7l1.1-0.9C835.9,574.6,836.1,573.9,835.9,573.4z"/>
	<path id="XMLID_744_" fill="#364867" d="M792.9,469.8l-81.4-5.3l45,104l77.8,7.4l-40.1-105.1C794,470.2,793.5,469.8,792.9,469.8z"
		/>
	<path id="XMLID_745_" fill="#FDB382" d="M831.5,524.4l-20.7-15.3l6.9,17.4c0,0-29.4-2.1-37.5-3.8s-19.9-6.9-20.7-3.7
		c-0.9,3.2,13,9.2,23.6,11.8c-13.3-0.3-20.7-0.3-28.2-2.6c-7.5-2.3-7.2,1.7,0,5.8c7.2,4,29.1,6.3,29.1,6.3c-15.3,1.2-23-2-26.5,0
		c-3.5,2,0.3,4.3,9.8,6c9.5,1.7,23.2,2.9,23.2,2.9s-13.4,1.7-17.7,2.6c-4.3,0.9-0.9,3.7,9.5,5.2s47.6,0,47.6,0L831.5,524.4z"/>
	<path id="XMLID_746_" fill="#FFFFFF" d="M921,405.2c14.3,5.1,32.5,29.6,32.5,88.6s-12.5,97-12.5,97l-113.5-21.5
		c0,0-11.5-25.5,7.1-44c34,12,75.4,18,75.4,18C905,470.3,894.6,395.8,921,405.2z"/>
	<path id="XMLID_297_" fill="#C8CBE3" d="M954.5,493.8c0,59.1-12.5,97.2-12.5,97.3c-0.2,0.5-0.6,0.8-1.1,0.7L865,578.5
		c0-0.7-0.1-1.4-0.1-2c0.1,0,0.1,0,0.2,0l75.3,13.3c0.1-0.3,0.2-0.5,0.3-0.9c0.3-1.1,0.8-2.8,1.4-5.1c1.2-4.5,2.7-11,4.3-19.4
		c3.1-16.8,6.2-41,6.2-70.4c0-29.4-4.5-50.1-10.8-64.1c-6.3-14-14.3-21.1-21-23.5c-1.4-0.5-2.7-0.8-3.9-0.8c-1.1,0-2.1,0.2-3,0.6
		c-0.9,0.4-1.7,1-2.5,1.9c-1.5,1.7-2.8,4.3-3.8,7.6c-2,6.8-2.8,16.6-2.8,28.5c0,26.4,3.8,63,6.3,99.2c0,0.3-0.1,0.6-0.3,0.8
		c-0.2,0.2-0.5,0.3-0.9,0.2c0,0-21.6-4.1-46.4-10.4c0-0.7,0-1.4,0-2.1c21.4,5.4,40.5,9.3,45.5,10.2c-2.5-35.7-6.2-71.7-6.2-98
		c0-7.9,0.3-14.9,1.2-20.8c0.8-5.9,2.1-10.7,4-14.1c1.3-2.3,3-4,5-5c1.2-0.5,2.5-0.8,3.8-0.8c1.4,0,2.9,0.3,4.5,0.9
		c7.5,2.7,15.8,10.3,22.2,24.6C949.9,443.2,954.5,464.2,954.5,493.8z"/>
</g>
</svg>
